<?xml version="1.0" standalone="no"?>
<!DOCTYPE svg PUBLIC "-//W3C//DTD SVG 20010904//EN"
 "http://www.w3.org/TR/2001/REC-SVG-20010904/DTD/svg10.dtd">
<svg version="1.0" xmlns="http://www.w3.org/2000/svg"
 width="295.000000pt" height="343.000000pt" viewBox="0 0 295.000000 343.000000"
 preserveAspectRatio="xMidYMid meet">

<g transform="translate(0.000000,343.000000) scale(0.100000,-0.100000)"
fill="#000000" stroke="none">
<path d="M1463 3355 c-18 -12 -63 -30 -100 -39 -37 -10 -83 -27 -101 -38 -31
-19 -34 -19 -68 -3 l-35 16 -46 -40 c-25 -23 -51 -41 -58 -41 -7 0 -31 -14
-54 -31 -40 -28 -45 -29 -79 -18 -32 11 -37 10 -47 -7 -5 -10 -33 -41 -62 -69
-49 -48 -53 -50 -101 -47 -48 4 -50 3 -56 -25 -4 -15 -20 -43 -36 -62 -17 -18
-30 -38 -30 -42 0 -5 -20 -9 -45 -9 -39 0 -45 -3 -45 -21 0 -35 -63 -158 -85
-165 -38 -12 -54 -34 -49 -67 3 -18 1 -52 -3 -76 -7 -39 -13 -46 -39 -53 l-30
-8 -2 -87 c0 -51 -5 -89 -11 -91 -6 -2 -20 -11 -31 -20 l-21 -17 21 -83 21
-83 -26 -20 c-26 -21 -33 -53 -14 -65 6 -3 19 -25 28 -48 17 -40 17 -42 -3
-69 l-21 -28 21 -17 c11 -9 26 -31 33 -49 11 -26 10 -35 -4 -57 -17 -25 -17
-27 15 -56 26 -25 31 -35 25 -59 -5 -23 -1 -35 20 -57 18 -20 24 -35 20 -51
-3 -15 0 -25 13 -32 10 -5 24 -21 31 -34 13 -24 8 -32 -92 -164 -104 -139
-105 -140 -104 -194 1 -71 -31 -145 -70 -160 -61 -23 -82 -68 -42 -90 35 -18
220 15 754 135 296 67 269 65 283 18 16 -53 17 -52 -25 -52 l-36 0 62 -40 c34
-22 67 -40 74 -40 7 0 4 5 -5 11 -13 7 -15 15 -9 32 4 12 6 28 4 35 -6 17 18
15 55 -4 33 -16 57 -11 48 11 -6 16 36 29 45 13 4 -6 12 -7 19 -3 9 6 9 10 -1
17 -9 6 4 8 38 6 43 -2 55 1 67 17 14 17 17 18 26 5 20 -30 23 -84 8 -128
l-16 -42 27 -7 c14 -4 34 -6 44 -5 9 0 17 -3 17 -8 0 -15 40 2 51 21 8 16 6
19 -11 19 -11 0 -20 -4 -20 -10 0 -5 -6 -7 -14 -4 -8 3 -11 15 -9 29 4 19 0
24 -18 27 -21 3 -24 9 -24 42 0 34 4 41 27 47 14 4 63 0 110 -10 45 -9 104
-15 130 -13 44 3 48 5 58 38 6 18 15 34 18 34 4 0 97 -20 207 -45 589 -133
761 -165 800 -147 45 21 28 61 -39 93 -42 20 -71 81 -71 153 -1 58 -2 59 -98
187 l-97 129 26 39 c14 22 32 42 40 45 10 4 12 14 9 29 -4 16 1 31 20 51 21
22 25 34 20 57 -6 24 -1 34 25 59 32 29 32 31 15 56 -14 22 -15 31 -4 57 7 18
22 40 33 49 l21 17 -21 28 c-20 27 -20 29 -3 69 9 23 22 45 28 48 18 12 13 38
-13 65 -25 26 -25 26 -10 91 9 36 20 70 25 77 8 8 0 18 -25 35 -38 24 -38 26
-40 153 -1 35 -5 42 -33 54 -28 13 -33 20 -38 66 -4 29 -4 62 -1 72 7 21 -15
46 -49 57 -22 7 -85 130 -85 165 0 18 -6 21 -42 22 -39 0 -46 4 -75 45 -18 24
-35 55 -39 68 -6 27 -40 38 -82 27 -22 -6 -33 1 -76 43 -28 28 -56 60 -61 70
-10 17 -15 18 -48 7 -33 -11 -39 -10 -69 12 -18 14 -44 28 -57 32 -13 4 -43
25 -67 47 -43 40 -43 40 -75 24 -40 -20 -48 -20 -69 -1 -9 8 -54 26 -100 39
-46 14 -96 34 -111 45 -35 26 -46 25 -86 -4z m67 -20 c7 -8 45 -25 84 -36 102
-30 126 -40 147 -63 l19 -20 38 22 39 22 24 -26 c13 -14 50 -39 81 -55 32 -16
62 -38 68 -48 9 -18 14 -19 46 -7 l36 12 59 -58 c32 -32 59 -62 59 -67 0 -19
20 -22 42 -7 32 23 53 20 67 -10 6 -14 24 -42 40 -62 16 -20 31 -46 33 -57 3
-12 10 -18 19 -16 52 14 53 13 87 -56 18 -37 32 -78 32 -90 0 -17 6 -23 23
-23 38 0 45 -13 52 -102 7 -81 9 -88 29 -88 37 0 42 -12 42 -99 l-1 -84 33
-15 c23 -11 31 -20 26 -31 -4 -9 -10 -34 -13 -56 -4 -22 -13 -50 -19 -62 -17
-31 -15 -36 19 -56 l31 -17 -35 -64 c-35 -63 -35 -63 -15 -83 19 -20 19 -20
-16 -79 -35 -59 -35 -59 -14 -75 20 -16 20 -16 -15 -66 -26 -37 -32 -54 -24
-62 8 -8 2 -21 -21 -50 -18 -22 -28 -42 -23 -46 10 -6 -37 -85 -51 -85 -13 0
-9 11 17 46 15 20 21 35 15 39 -6 4 5 24 25 50 30 36 33 44 19 49 -13 5 -10
14 20 56 35 48 35 51 18 66 -18 15 -17 18 15 82 33 65 33 67 15 80 -19 12 -19
15 13 78 l33 65 -21 14 c-12 8 -27 15 -34 15 -16 0 -16 0 1 41 7 19 16 57 20
85 6 50 5 52 -19 58 -20 5 -25 11 -20 26 3 11 3 51 -1 89 -6 65 -8 70 -33 76
-25 5 -28 11 -39 86 -7 44 -10 84 -7 89 3 5 -10 12 -30 16 -30 5 -35 10 -35
33 0 14 -11 42 -24 62 -13 19 -26 46 -28 60 -3 24 -12 27 -55 13 -17 -4 -23
-2 -23 8 0 8 -20 40 -44 71 -25 32 -46 63 -49 70 -3 9 -11 8 -36 -3 l-31 -15
-65 61 c-36 34 -65 66 -65 73 0 14 -19 14 -50 -2 -22 -11 -27 -10 -42 9 -9 11
-48 37 -86 57 -38 20 -75 44 -82 52 -11 14 -16 12 -45 -10 -29 -22 -34 -23
-46 -9 -18 22 -41 33 -131 60 -45 13 -90 31 -100 41 -16 14 -20 15 -35 1 -10
-9 -58 -28 -108 -43 -49 -15 -100 -36 -114 -46 -29 -23 -39 -24 -63 -2 -15 14
-22 15 -36 5 -9 -6 -44 -26 -77 -43 -33 -17 -72 -43 -87 -57 -24 -22 -31 -24
-53 -14 -33 15 -55 15 -55 0 0 -7 -29 -39 -63 -73 -59 -56 -65 -59 -88 -48
-32 17 -49 16 -49 -1 0 -8 -18 -35 -39 -60 -22 -25 -42 -55 -46 -66 -7 -21
-14 -21 -62 -3 -7 3 -13 -2 -13 -11 0 -9 -13 -42 -30 -73 -16 -31 -30 -64 -30
-75 0 -13 -9 -20 -30 -24 -26 -6 -30 -11 -30 -37 0 -17 -5 -57 -12 -89 -10
-50 -15 -58 -39 -63 -24 -5 -27 -11 -29 -53 -2 -26 -3 -66 -2 -89 1 -37 -2
-44 -22 -49 -21 -5 -23 -10 -19 -47 3 -23 12 -60 19 -82 16 -48 17 -55 4 -55
-5 0 -10 9 -10 19 0 11 -4 22 -9 25 -5 4 -14 28 -20 54 -5 26 -12 54 -16 63
-4 11 3 20 24 29 29 12 31 16 33 74 1 33 1 72 0 86 -2 27 12 40 44 40 20 0 22
7 29 88 7 89 14 102 53 102 16 0 22 6 22 23 0 12 14 53 32 90 34 69 35 70 87
56 9 -2 16 4 19 16 2 11 17 37 33 57 16 20 33 48 39 62 11 30 29 32 71 11 28
-15 30 -15 40 8 6 14 31 41 55 61 24 20 44 44 44 51 0 18 -2 18 49 0 38 -13
41 -13 51 5 6 11 34 32 63 46 29 14 66 39 83 55 l30 30 37 -25 c35 -24 37 -24
50 -6 15 22 56 41 154 70 40 12 78 29 84 36 15 18 24 18 39 -1z m140 -179
c320 -49 605 -230 787 -501 80 -120 140 -269 169 -422 25 -133 15 -366 -20
-491 -31 -112 -102 -269 -128 -283 -24 -13 -23 -5 11 55 101 177 147 442 117
663 -34 256 -147 476 -334 655 -140 133 -298 222 -487 274 -91 25 -116 28
-275 28 -152 0 -187 -3 -264 -23 -356 -93 -642 -342 -772 -672 -46 -118 -66
-217 -71 -355 -9 -208 23 -364 109 -542 38 -77 43 -103 20 -88 -5 3 -25 38
-45 78 -135 275 -153 600 -48 888 77 209 212 389 395 525 244 181 540 255 836
211z m12 -51 c496 -86 857 -473 908 -971 22 -213 -28 -450 -132 -632 -49 -86
-42 -54 12 61 294 615 -37 1331 -696 1508 -113 31 -350 38 -465 14 -327 -66
-588 -257 -747 -546 -167 -307 -168 -698 -2 -1006 22 -41 34 -73 28 -71 -23 6
-106 190 -134 293 -32 124 -43 307 -24 434 59 404 341 742 731 875 160 54 357
70 521 41z m15 -40 c517 -98 886 -560 860 -1075 -6 -120 -18 -183 -53 -290
-30 -93 -93 -219 -116 -234 -13 -8 -57 -5 -169 11 -83 12 -153 24 -155 26 -2
2 18 37 44 78 129 197 156 416 77 641 -34 98 -89 183 -170 263 -218 216 -532
272 -811 145 -172 -78 -327 -251 -383 -430 -66 -210 -36 -437 80 -616 28 -42
49 -77 47 -79 -4 -3 -292 -45 -312 -45 -34 0 -127 209 -157 355 -25 117 -26
310 -4 420 86 417 402 738 815 826 108 22 299 24 407 4z m-28 -435 c23 -6 41
-15 41 -19 0 -5 15 -14 33 -20 29 -10 30 -9 13 4 -28 21 -12 19 34 -5 22 -11
40 -27 40 -36 0 -8 5 -12 10 -9 6 3 10 1 10 -5 0 -7 8 -9 19 -5 13 4 25 -2 39
-20 11 -14 23 -25 26 -25 15 0 48 -39 42 -49 -5 -7 -1 -8 10 -4 14 5 16 3 11
-12 -6 -14 -5 -15 6 -7 10 8 16 6 25 -9 10 -15 10 -19 0 -19 -10 0 -9 -3 1 -9
8 -5 10 -14 6 -21 -5 -9 -4 -11 4 -6 16 10 68 -47 76 -84 4 -17 12 -30 18 -30
7 0 6 -4 -3 -10 -12 -8 -13 -11 -1 -19 8 -5 11 -18 7 -32 -3 -13 -3 -18 0 -11
3 6 10 12 15 12 6 0 8 -4 5 -8 -3 -5 2 -28 10 -53 15 -43 15 -86 -2 -173 -5
-28 -4 -37 4 -32 15 9 4 -83 -12 -103 -6 -8 -9 -26 -8 -40 2 -20 1 -23 -7 -11
-8 12 -11 6 -11 -22 0 -39 -15 -52 -23 -20 -4 13 -5 12 -6 -5 0 -12 3 -24 8
-28 6 -3 3 -18 -7 -35 -14 -25 -18 -27 -24 -12 -5 14 -7 13 -7 -5 -1 -35 -2
-37 -13 -51 -9 -11 -13 -11 -21 0 -6 9 -7 8 -3 -5 7 -23 -35 -70 -58 -65 -15
3 -13 8 10 38 22 30 25 31 19 10 -4 -14 -13 -28 -19 -32 -8 -6 -7 -8 1 -8 16
0 32 31 35 65 2 16 7 24 16 20 7 -2 12 1 11 8 -1 6 1 24 6 40 6 23 10 26 23
15 13 -11 15 -10 9 5 -7 18 7 58 40 120 8 16 13 37 10 47 -3 11 0 21 6 23 6 2
9 29 7 68 -2 35 -4 83 -4 107 0 23 -3 42 -8 42 -4 0 -8 10 -8 23 0 18 2 19 10
7 9 -13 10 -13 10 0 -1 8 -7 24 -15 34 -8 11 -15 30 -15 42 0 12 -7 24 -15 28
-8 3 -15 10 -15 16 0 6 5 8 10 5 6 -3 10 -1 10 4 0 6 -5 11 -11 11 -6 0 -8 9
-4 21 5 14 0 27 -14 40 -12 11 -21 15 -21 9 0 -5 -5 -10 -11 -10 -6 0 -8 7 -5
16 3 8 2 12 -3 9 -5 -3 -13 5 -16 17 -4 13 -29 42 -56 66 -27 24 -49 50 -49
58 0 9 -5 12 -12 8 -7 -4 -10 -4 -6 1 9 10 -10 35 -26 35 -6 0 -4 -4 4 -10 8
-5 12 -12 8 -15 -3 -4 -16 3 -27 14 -12 12 -21 19 -21 16 0 -3 -22 9 -49 26
-28 16 -63 31 -78 32 -15 1 -31 6 -34 10 -3 5 -42 11 -85 15 -65 5 -73 7 -44
13 25 5 14 7 -40 7 -54 0 -69 -2 -55 -9 18 -8 17 -9 -5 -5 -44 7 -125 -8 -122
-23 2 -8 -3 -11 -12 -8 -9 4 -18 2 -22 -4 -4 -6 -11 -6 -20 2 -8 6 -17 9 -21
5 -3 -3 -1 -6 5 -6 21 0 13 -16 -13 -28 -14 -6 -32 -9 -42 -5 -11 4 -14 3 -9
-5 5 -8 1 -10 -10 -5 -12 4 -15 3 -10 -5 5 -8 1 -10 -10 -5 -12 4 -15 3 -10
-5 4 -7 1 -12 -8 -12 -23 0 -20 17 4 25 11 4 18 10 15 15 -3 5 4 14 16 20 12
7 19 8 16 3 -4 -5 8 -10 25 -10 27 0 28 2 14 13 -15 10 -13 13 16 24 18 7 41
12 52 11 10 -2 15 2 12 7 -3 6 2 8 13 5 10 -3 22 0 25 5 4 6 22 8 40 5 19 -3
41 -1 50 4 22 12 172 8 225 -7z m-176 -106 l14 -26 18 28 18 27 14 -26 c16
-32 24 -34 41 -7 15 24 32 18 32 -11 0 -26 25 -24 44 3 15 21 16 21 18 3 0
-11 1 -26 1 -32 -1 -18 18 -16 45 3 21 15 22 14 22 -15 0 -31 21 -43 35 -21
12 20 25 9 25 -21 0 -24 4 -30 15 -25 8 3 22 9 31 13 14 5 15 1 9 -27 -7 -32
-7 -33 24 -28 31 5 32 4 25 -25 -6 -29 -5 -30 25 -24 29 6 30 5 21 -19 -15
-39 -12 -47 15 -42 31 6 40 -5 20 -22 -25 -21 -18 -40 16 -40 l30 0 -21 -27
-21 -27 31 -11 31 -11 -20 -18 c-28 -25 -26 -32 7 -41 l27 -7 -22 -18 c-29
-23 -29 -26 4 -44 l28 -14 -28 -13 c-32 -15 -34 -25 -7 -39 27 -14 25 -27 -5
-34 -30 -8 -32 -21 -5 -38 25 -16 26 -28 3 -28 -38 0 -45 -15 -22 -44 11 -14
17 -26 12 -25 -27 5 -55 -2 -50 -13 20 -48 20 -48 -5 -48 -34 0 -39 -9 -21
-36 15 -24 15 -24 -17 -24 -31 0 -32 -2 -27 -30 6 -28 5 -29 -24 -23 -31 6
-31 5 -24 -26 3 -17 5 -31 2 -31 -18 0 -77 32 -72 40 3 5 1 11 -4 15 -6 3 -8
12 -4 20 8 22 -15 18 -26 -4 -8 -15 -7 -21 7 -26 14 -6 11 -9 -13 -16 -16 -5
-38 -6 -49 -3 -16 5 -18 2 -13 -18 6 -23 2 -26 -52 -41 -70 -20 -131 -53 -131
-73 0 -20 11 -18 61 11 112 62 292 71 582 29 103 -15 227 -27 287 -27 l105 0
93 -124 92 -123 -26 -10 c-14 -6 -71 -15 -126 -22 -121 -13 -230 -3 -463 43
-202 41 -395 46 -512 15 -46 -13 -73 -25 -73 -34 0 -7 -5 -10 -12 -6 -6 4 -8
3 -4 -4 10 -17 -16 -63 -33 -60 -9 2 -25 22 -36 45 -19 39 -25 43 -85 58 -145
38 -267 32 -570 -27 -118 -23 -186 -30 -285 -31 -121 -2 -265 16 -265 33 0 4
41 60 90 126 l90 119 108 1 c59 1 172 12 252 25 109 17 187 23 315 24 182 0
231 -9 321 -61 36 -20 43 -22 48 -8 10 25 7 54 -5 54 -6 0 -9 -6 -6 -14 4 -10
-9 -8 -46 10 -29 13 -85 31 -124 40 -40 9 -73 20 -73 25 0 4 -7 6 -15 3 -8 -4
-15 -1 -15 6 0 8 -7 9 -17 5 -10 -4 -24 -9 -30 -12 -10 -4 -11 4 -6 28 6 32 6
32 -26 26 -30 -6 -32 -5 -25 16 11 38 10 42 -19 42 -23 -1 -26 2 -21 20 11 36
9 40 -19 37 l-28 -4 16 31 c15 31 15 31 -12 32 -16 1 -32 1 -37 0 -10 -2 12
29 28 40 13 10 -2 29 -23 29 -28 0 -32 11 -9 30 24 19 17 40 -13 40 -27 0 -24
12 7 31 l26 16 -24 19 -25 18 21 18 21 18 -23 18 c-24 19 -20 32 10 32 24 0
23 25 -3 43 -20 14 -19 15 12 26 31 11 31 11 15 36 -16 25 -16 25 13 31 l31 6
-22 31 -21 30 32 -5 c40 -6 47 4 24 38 l-17 27 37 -7 c41 -8 41 -8 27 30 -10
26 -10 26 20 21 28 -6 30 -5 30 24 0 26 3 30 18 24 32 -12 37 -10 37 18 -1 26
18 37 30 17 14 -23 35 -10 35 22 0 29 1 30 18 15 26 -24 42 -21 42 8 0 29 7
31 31 9 21 -19 39 -11 39 17 0 25 16 24 30 -1 14 -27 24 -25 38 5 14 31 18 31
35 -1z m-380 -11 c-4 -10 -2 -14 5 -9 6 3 13 2 17 -4 3 -5 1 -10 -5 -10 -17 0
-128 -117 -160 -169 -28 -44 -29 -45 -35 -19 -8 30 21 82 41 74 7 -3 18 3 26
11 11 15 11 16 -5 10 -11 -4 -16 -3 -12 3 3 6 12 10 20 10 8 0 17 4 20 10 4 6
-1 7 -12 4 -10 -3 9 19 41 50 33 31 61 56 63 56 1 0 -1 -7 -4 -17z m-183 -223
c0 -5 -4 -10 -9 -10 -5 0 -11 -9 -14 -20 -3 -11 -1 -20 4 -20 5 0 4 -11 -3
-25 -10 -23 -28 -26 -28 -4 0 6 5 7 12 3 8 -5 9 0 5 15 -3 13 -1 34 5 47 11
24 28 33 28 14z m1152 -22 c-9 -9 -12 -7 -12 12 0 19 3 21 12 12 9 -9 9 -15 0
-24z m-1142 -2 c0 -3 -4 -8 -10 -11 -5 -3 -10 -1 -10 4 0 6 5 11 10 11 6 0 10
-2 10 -4z m-59 -98 c0 -22 1 -22 9 -3 5 11 9 14 9 7 1 -7 -6 -26 -14 -42 -8
-16 -14 -37 -13 -47 0 -10 0 -34 -1 -53 -3 -32 -4 -33 -10 -10 -6 22 -8 23
-14 6 -4 -10 -3 -24 2 -30 5 -6 9 -38 9 -70 0 -35 5 -62 12 -66 7 -4 10 -12 6
-18 -3 -6 1 -17 10 -26 8 -9 14 -24 13 -33 -4 -41 1 -64 13 -57 6 4 8 3 5 -3
-4 -6 0 -16 8 -23 8 -7 15 -21 15 -32 0 -10 5 -16 10 -13 6 3 10 4 10 1 0 -2
3 -13 6 -23 5 -15 4 -16 -6 -3 -9 12 -10 11 -5 -7 4 -14 2 -23 -4 -23 -6 0
-12 6 -13 13 0 6 -2 17 -3 22 -2 6 -3 18 -4 28 0 9 -5 17 -11 17 -5 0 -7 -8
-3 -17 3 -10 3 -15 -2 -11 -4 4 -9 18 -10 30 -4 38 -5 39 -17 32 -7 -5 -8 -3
-3 6 4 7 2 16 -5 20 -15 9 -34 92 -32 145 1 29 -1 36 -8 25 -7 -11 -10 -7 -10
17 0 17 6 34 13 36 9 4 9 8 -2 15 -11 8 -12 21 -3 73 6 35 14 81 17 102 6 40
25 51 26 15z m-595 -73 c-17 -13 -17 -16 13 -80 18 -37 30 -69 28 -71 -2 -2
-20 27 -41 64 l-37 67 21 17 c12 10 25 18 29 18 3 0 -2 -7 -13 -15z m50 -259
c12 -24 11 -26 -1 -16 -20 16 -55 92 -48 103 3 5 12 -6 21 -24 8 -19 21 -47
28 -63z m9 -56 c-17 -18 -16 -21 14 -70 39 -63 24 -58 -19 6 -30 45 -30 47
-13 65 24 24 41 24 18 -1z m81 -228 c-6 -9 -6 -16 0 -20 16 -12 45 -62 35 -62
-13 0 -51 67 -51 90 0 10 -4 22 -10 25 -5 3 -15 16 -21 28 -7 14 0 10 23 -13
24 -25 31 -39 24 -48z m568 41 c4 -9 1 -20 -6 -25 -9 -6 -7 -8 7 -6 11 2 28
-5 38 -16 22 -24 22 -36 0 -36 -20 0 -63 46 -63 67 0 9 -5 11 -12 7 -9 -5 -9
-2 1 9 17 21 27 22 35 0z m200 -619 c5 -14 4 -15 -9 -4 -17 14 -19 20 -6 20 5
0 12 -7 15 -16z"/>
<path d="M1332 2944 c-155 -24 -322 -96 -419 -179 -43 -36 -57 -62 -28 -52 8
4 27 -6 44 -23 16 -17 36 -30 44 -30 10 0 13 -7 10 -20 -10 -37 15 -20 32 22
15 38 18 41 29 25 13 -16 36 -24 36 -11 0 3 -16 33 -37 65 -20 33 -34 61 -32
63 2 2 18 10 34 19 50 25 94 -17 45 -43 -21 -11 -27 -30 -9 -30 6 0 22 -9 35
-19 14 -11 33 -17 45 -14 20 5 23 24 4 25 -6 0 -18 4 -29 10 -13 7 -15 13 -7
21 15 15 14 50 -1 65 -15 15 -1 30 32 34 29 4 41 -30 16 -44 -24 -13 -19 -28
9 -28 18 0 28 -7 35 -25 10 -26 30 -34 30 -12 0 8 -9 39 -19 70 -21 60 -19 67
15 67 23 0 26 -5 50 -102 7 -31 34 -38 34 -10 0 11 -7 41 -15 67 -8 27 -12 52
-9 57 3 4 28 8 55 8 37 0 51 -4 56 -16 7 -19 -24 -47 -44 -40 -25 10 -13 -22
18 -48 34 -29 69 -34 69 -11 0 8 -8 15 -18 15 -30 0 -34 12 -11 36 15 16 20
31 17 48 l-5 26 79 0 c48 0 77 -4 73 -10 -3 -5 -12 -7 -20 -3 -20 7 -72 -15
-80 -34 -13 -36 25 -73 75 -73 11 0 20 -4 20 -10 0 -19 30 -10 31 10 1 11 3
25 4 30 1 6 3 17 4 25 1 18 32 20 49 3 15 -15 -3 -38 -29 -38 -11 0 -19 -7
-19 -15 0 -22 46 -19 70 5 37 37 15 79 -51 93 -13 3 3 5 36 4 89 -3 83 16 -10
30 -106 15 -229 14 -343 -3z m258 -79 c0 -21 -5 -25 -29 -25 -31 0 -46 21 -28
39 6 6 21 11 34 11 18 0 23 -6 23 -25z m-582 -144 c-4 -37 -40 -40 -63 -5 -17
27 -17 28 5 46 22 18 24 18 42 1 11 -10 18 -27 16 -42z"/>
<path d="M1830 2896 c0 -9 6 -16 14 -16 22 0 46 -28 39 -46 -4 -10 -16 -14
-37 -12 -31 3 -31 2 -28 -37 4 -49 26 -76 44 -56 10 11 10 14 1 18 -21 8 -15
29 12 41 34 15 38 15 32 -2 -4 -9 2 -17 14 -21 23 -7 23 -14 4 -39 -18 -24
-19 -36 -2 -36 12 0 43 44 59 83 11 25 37 32 55 15 13 -14 13 -18 -1 -41 -10
-14 -26 -27 -37 -30 -29 -8 -21 -41 11 -45 35 -5 46 -18 31 -36 -7 -8 -10 -20
-6 -27 5 -7 24 8 52 40 47 53 67 62 77 34 5 -11 -7 -31 -39 -63 -25 -25 -45
-49 -45 -53 0 -19 30 -3 70 38 24 24 47 42 52 39 16 -10 98 -128 98 -141 0
-22 -18 -14 -40 17 -25 36 -37 38 -42 8 -4 -30 -38 -37 -38 -8 0 12 5 30 11
42 16 29 0 37 -22 9 -21 -26 -25 -71 -7 -89 15 -15 54 -16 63 -2 9 15 25 12
25 -4 0 -8 -9 -17 -19 -21 -11 -3 -25 -12 -32 -21 -23 -28 0 -26 54 4 34 19
62 29 76 25 29 -7 27 1 -18 76 -81 135 -211 253 -356 322 -104 49 -125 55
-125 35z m138 -96 c-15 -23 -19 -24 -41 -7 -11 8 -15 20 -11 34 6 21 8 22 35
7 25 -13 27 -17 17 -34z m126 -56 c22 -8 20 -27 -4 -49 -18 -16 -22 -17 -35
-4 -13 13 -13 17 1 37 17 25 16 24 38 16z"/>
<path d="M781 2635 c-40 -46 -94 -130 -120 -189 -18 -42 -23 -47 -36 -36 -37
31 -97 -33 -99 -104 -1 -47 16 -76 45 -76 11 0 19 -7 19 -15 0 -18 17 -20 22
-3 3 8 21 8 71 -2 106 -20 107 6 1 29 -29 7 -56 16 -59 21 -7 12 34 120 46
120 12 0 11 -6 -2 -29 -7 -10 -9 -30 -5 -44 12 -51 89 -44 102 9 4 16 12 23
20 20 8 -3 14 0 14 7 0 8 -27 26 -60 42 -33 16 -60 33 -60 37 0 5 8 23 17 41
l18 32 3 -32 c3 -27 7 -33 28 -33 13 0 24 -4 24 -10 0 -5 11 -10 25 -10 28 0
61 42 49 61 -5 9 -2 10 9 6 38 -15 23 15 -28 55 -30 23 -55 46 -55 49 0 4 7
12 15 19 13 11 23 6 64 -29 48 -40 71 -50 71 -32 0 5 -23 28 -50 51 -38 32
-49 47 -45 61 10 30 -10 22 -44 -16z m-3 -101 c27 -19 44 -57 36 -79 -8 -20
-34 -19 -34 1 0 11 -6 14 -20 9 -21 -7 -28 9 -8 21 8 5 6 11 -6 19 -9 7 -14
19 -10 29 8 20 14 20 42 0z m-162 -159 c3 -8 1 -37 -6 -65 -9 -37 -17 -50 -30
-50 -35 0 -41 64 -9 104 23 29 37 33 45 11z m119 -45 c0 -18 -6 -26 -22 -28
-24 -3 -29 11 -17 43 10 25 39 14 39 -15z"/>
<path d="M2220 2360 c0 -5 -10 -10 -22 -10 -15 0 -19 -3 -12 -10 7 -7 19 -8
37 -1 29 11 37 31 12 31 -8 0 -15 -4 -15 -10z"/>
<path d="M2398 2314 c-4 -5 -1 -37 6 -71 8 -34 11 -65 8 -68 -15 -15 -30 -1
-36 34 -8 51 -40 77 -71 57 -40 -26 -26 -76 21 -76 37 0 30 -28 -8 -32 -17 -2
-34 -9 -36 -17 -4 -11 6 -12 53 -6 32 4 64 9 70 11 12 5 29 -35 20 -45 -3 -2
-33 -7 -67 -10 -40 -4 -63 -11 -66 -20 -4 -12 8 -13 67 -7 71 6 71 6 71 -19 0
-24 -2 -25 -71 -25 -52 0 -70 -3 -67 -12 3 -8 29 -14 71 -16 l67 -3 0 -32 c0
-41 -13 -60 -36 -55 -12 2 -20 13 -22 31 -2 15 -9 27 -15 27 -22 0 -77 -39
-77 -55 0 -20 20 -19 36 2 11 17 14 16 34 -10 13 -16 31 -27 46 -27 21 0 24
-4 21 -25 -2 -14 -6 -25 -10 -25 -4 0 -14 0 -22 0 -9 0 -15 9 -15 25 0 16 -6
25 -15 25 -8 0 -15 -9 -15 -19 0 -17 -5 -19 -35 -14 -21 3 -35 2 -35 -5 0 -11
38 -25 98 -37 36 -7 36 -9 21 -71 -13 -51 -35 -74 -24 -26 5 24 2 35 -14 51
-28 28 -55 26 -79 -4 -11 -14 -25 -25 -31 -25 -17 0 -13 -18 7 -29 9 -6 11
-11 5 -11 -24 0 -15 -58 12 -76 23 -15 27 -15 50 0 14 9 25 23 25 32 0 8 4 13
10 9 5 -3 1 -24 -10 -50 -15 -36 -16 -45 -6 -45 18 0 70 125 93 220 15 61 20
71 36 66 45 -11 90 80 70 141 -7 21 -51 58 -69 58 -1 0 -9 51 -19 114 -16 115
-36 184 -47 165z m-63 -84 c0 -7 -6 -15 -12 -17 -8 -3 -13 4 -13 17 0 13 5 20
13 18 6 -3 12 -11 12 -18z m173 -282 c4 -46 -12 -78 -38 -78 -22 0 -26 28 -14
89 5 25 11 31 28 29 16 -2 22 -11 24 -40z m-168 -234 c0 -25 -7 -28 -34 -18
-19 7 -21 40 -3 47 22 7 37 -4 37 -29z m-30 -65 c0 -10 -5 -21 -11 -25 -15 -9
-41 19 -34 38 8 21 45 11 45 -13z"/>
<path d="M573 1988 c3 -107 11 -176 25 -229 26 -96 74 -211 87 -207 6 2 9 10
8 19 -3 18 36 39 72 39 32 0 33 28 3 54 l-21 19 23 17 c37 28 7 31 -56 6 -33
-13 -62 -22 -66 -20 -13 8 -21 75 -10 86 13 13 52 0 52 -18 0 -8 6 -14 13 -14
16 0 60 66 52 79 -11 18 -22 12 -29 -13 -6 -25 -7 -25 -36 -8 -24 14 -33 15
-49 5 -21 -13 -31 -8 -31 17 0 18 62 40 109 40 13 0 21 7 21 16 0 13 -7 15
-35 10 -19 -3 -50 -9 -69 -12 l-33 -6 -7 53 c-8 60 6 86 22 41 13 -39 43 -55
75 -43 41 16 51 68 20 104 -20 21 -46 22 -79 1 -30 -20 -47 -8 -42 27 3 23 6
24 76 21 42 -1 72 2 72 8 0 10 -21 16 -89 24 -26 2 -48 11 -53 20 -5 9 -14 16
-20 16 -7 0 -9 -46 -5 -152z m126 5 c11 -21 -3 -53 -23 -53 -21 0 -38 27 -31
50 8 24 40 26 54 3z m36 -353 c-8 -12 -65 -30 -65 -20 0 4 -3 15 -6 23 -8 23
47 40 63 19 7 -8 10 -18 8 -22z"/>
<path d="M1618 2623 c6 -2 18 -2 25 0 6 3 1 5 -13 5 -14 0 -19 -2 -12 -5z"/>
<path d="M1839 2312 c14 -26 14 -45 1 -37 -5 3 -10 1 -10 -5 0 -8 -9 -10 -25
-6 -29 7 -31 3 -9 -18 17 -17 69 -22 78 -7 9 14 -17 84 -32 89 -11 3 -12 0 -3
-16z"/>
<path d="M1323 2303 c15 -2 37 -2 50 0 12 2 0 4 -28 4 -27 0 -38 -2 -22 -4z"/>
<path d="M1431 2280 c64 -34 68 -88 15 -202 -14 -31 -26 -65 -26 -75 0 -19
-18 -43 -32 -43 -4 0 -5 14 -1 31 5 29 5 30 -14 19 -16 -10 -26 -9 -61 9 -23
12 -42 27 -42 34 0 6 -14 -3 -31 -21 -16 -17 -27 -37 -23 -43 4 -8 9 -7 15 2
6 10 13 11 31 1 13 -6 35 -16 51 -22 32 -11 34 -21 7 -45 -18 -16 -22 -16 -43
-2 -28 18 -36 14 -64 -39 -20 -38 -20 -42 -6 -73 12 -23 20 -30 32 -25 9 4 37
10 63 14 31 4 61 17 85 37 45 36 109 126 118 168 4 17 22 50 40 75 l32 46 -31
45 c-59 86 -106 130 -138 129 -7 -1 3 -9 23 -20z"/>
<path d="M1329 2216 c-26 -9 -33 -16 -31 -31 6 -36 62 -63 62 -30 0 8 -5 15
-11 15 -5 0 -8 4 -4 9 3 5 -3 11 -12 14 -13 3 -10 6 11 12 18 5 36 4 47 -4 25
-15 34 -14 20 3 -17 21 -43 25 -82 12z"/>
<path d="M1230 2175 c9 -10 9 -15 1 -15 -6 0 -11 -8 -11 -17 1 -16 2 -16 15 1
20 26 19 46 -1 46 -14 0 -14 -3 -4 -15z"/>
<path d="M1621 2144 c0 -11 3 -14 6 -6 3 7 2 16 -1 19 -3 4 -6 -2 -5 -13z"/>
<path d="M1650 2064 c0 -14 4 -23 9 -20 5 3 7 15 4 26 -7 28 -13 25 -13 -6z"/>
<path d="M1540 2035 c-7 -8 -8 -15 -2 -15 5 0 15 7 22 15 7 8 8 15 2 15 -5 0
-15 -7 -22 -15z"/>
<path d="M1575 1990 c-26 -27 -27 -31 -15 -60 15 -35 25 -38 42 -10 7 11 18
20 25 20 7 0 13 5 13 10 0 6 -5 10 -12 10 -9 0 -9 3 -1 11 13 13 5 49 -11 49
-7 0 -25 -13 -41 -30z"/>
<path d="M1514 1749 c-81 -49 -112 -75 -39 -34 28 16 67 37 88 48 20 10 37 21
37 23 0 10 -22 1 -86 -37z"/>
<path d="M1368 1660 c-24 -16 -53 -39 -64 -51 -16 -19 5 -5 101 65 36 27 9 17
-37 -14z"/>
<path d="M1517 1493 c-4 -3 -7 -16 -6 -27 0 -19 1 -19 10 3 10 24 8 36 -4 24z"/>
<path d="M1040 1447 c-34 -17 -46 -46 -42 -102 5 -53 22 -43 22 13 0 29 3 32
29 32 16 0 38 2 48 5 10 3 3 -2 -14 -10 -18 -8 -33 -21 -33 -29 0 -8 -3 -21
-6 -29 -7 -20 33 -44 49 -28 8 8 5 11 -12 11 -14 0 -21 5 -19 13 6 17 39 21
49 6 11 -18 23 -4 15 17 -4 11 -14 15 -31 12 -14 -3 -25 -1 -25 3 0 5 11 9 24
9 13 0 26 7 30 15 4 10 20 15 51 15 51 0 62 -17 13 -22 -27 -2 -33 -7 -33 -27
0 -13 6 -26 13 -29 11 -3 12 0 3 16 -12 23 -6 32 26 32 18 0 23 -6 24 -27 1
-25 3 -24 12 10 15 53 41 51 32 -3 -4 -25 -3 -40 4 -40 5 0 11 17 13 37 3 39
14 49 38 33 13 -9 13 -12 -3 -24 -18 -14 -18 -15 2 -35 12 -12 28 -21 36 -21
8 0 15 -6 16 -12 0 -7 6 3 13 22 7 19 11 38 9 43 -13 25 -94 50 -176 55 -76 4
-92 8 -113 28 -27 28 -30 28 -64 11z m55 -18 c9 -14 7 -15 -37 -23 -30 -5 -38
-4 -38 8 0 24 62 37 75 15z m275 -90 c0 -12 -7 -19 -18 -19 -28 0 -32 10 -14
30 18 22 32 17 32 -11z"/>
<path d="M1780 1424 c-91 -13 -162 -29 -166 -36 -4 -5 11 -7 33 -3 l38 6 -33
-15 c-42 -19 -41 -51 1 -51 15 1 27 -3 27 -7 0 -4 5 -8 10 -8 6 0 10 20 10 44
0 43 0 43 41 50 49 8 64 1 20 -9 -28 -6 -31 -10 -31 -46 0 -61 50 -100 80 -64
16 19 13 22 -30 30 -40 7 -44 10 -35 24 9 15 52 14 59 -1 3 -7 4 -4 3 7 -2 15
-10 20 -30 18 -15 -1 -27 2 -27 8 0 5 11 9 25 9 16 0 25 6 25 15 0 12 14 15
68 14 37 -1 55 -4 40 -6 -29 -4 -36 -17 -18 -28 8 -5 7 -11 -1 -21 -10 -13
-15 -12 -36 7 -12 13 -23 18 -23 11 0 -13 28 -42 40 -42 22 0 40 14 40 31 0
10 5 19 10 19 6 0 10 -13 10 -30 0 -16 5 -30 10 -30 6 0 10 20 10 45 0 25 3
45 6 45 19 0 94 -24 94 -30 0 -4 -17 -7 -37 -6 -42 1 -52 -18 -20 -38 14 -9
21 -7 31 6 16 21 26 13 27 -21 1 -19 4 -14 13 19 7 25 10 48 6 53 -20 23 -204
43 -290 31z m-100 -64 c0 -5 -5 -10 -11 -10 -5 0 -7 5 -4 10 3 6 8 10 11 10 2
0 4 -4 4 -10z m325 0 c3 -5 1 -10 -4 -10 -6 0 -11 5 -11 10 0 6 2 10 4 10 3 0
8 -4 11 -10z m-350 -20 c3 -5 2 -10 -4 -10 -5 0 -13 5 -16 10 -3 6 -2 10 4 10
5 0 13 -4 16 -10z m137 -52 c-9 -9 -15 -9 -24 0 -9 9 -7 12 12 12 19 0 21 -3
12 -12z"/>
<path d="M865 1363 c-31 -10 -118 -18 -230 -22 -142 -5 -172 -8 -140 -15 l40
-9 -30 -6 c-39 -8 -43 -44 -5 -49 14 -2 31 -9 38 -14 9 -8 12 -1 12 31 l0 41
48 -1 c39 -1 42 -2 17 -8 -26 -5 -30 -11 -33 -42 -4 -50 25 -85 62 -75 35 9
29 29 -13 37 -43 9 -47 15 -20 29 19 11 25 10 36 -6 12 -17 13 -17 13 4 0 18
-6 22 -32 23 -32 0 -32 1 -8 10 13 6 27 14 30 19 3 5 34 11 70 14 57 5 62 4
40 -6 -15 -8 -24 -20 -22 -30 5 -25 -17 -32 -39 -12 -20 18 -27 6 -7 -14 22
-22 57 -14 64 13 3 14 10 25 15 25 5 0 9 -11 9 -25 0 -14 5 -25 10 -25 6 0 10
18 10 39 0 46 1 47 60 55 38 5 41 4 20 -5 -46 -20 -54 -25 -58 -37 -7 -23 30
-26 49 -4 23 29 29 28 29 -5 0 -22 2 -25 10 -13 5 8 10 29 10 46 0 16 5 35 12
42 16 16 -1 14 -67 -5z m-5 -57 c0 -3 -4 -8 -10 -11 -5 -3 -10 -1 -10 4 0 6 5
11 10 11 6 0 10 -2 10 -4z m-325 -16 c3 -5 2 -10 -4 -10 -5 0 -13 5 -16 10 -3
6 -2 10 4 10 5 0 13 -4 16 -10z m-30 -10 c3 -5 1 -10 -4 -10 -6 0 -11 5 -11
10 0 6 2 10 4 10 3 0 8 -4 11 -10z m145 -70 c0 -5 -6 -10 -14 -10 -8 0 -18 5
-21 10 -3 6 3 10 14 10 12 0 21 -4 21 -10z"/>
<path d="M2153 1358 c32 -11 38 -43 7 -35 -26 7 -26 -14 1 -44 l20 -24 -6 23
c-5 18 -2 22 14 22 16 0 21 -6 21 -28 0 -15 5 -33 12 -40 9 -9 7 -12 -9 -12
-11 0 -26 7 -33 15 -7 8 -18 15 -24 15 -19 -1 44 -50 64 -50 24 0 36 18 21 33
-13 13 -15 107 -2 107 5 0 21 -4 35 -10 35 -13 34 -40 -1 -40 l-27 0 29 -30
c31 -32 59 -43 31 -11 -15 16 -15 19 -1 31 9 7 13 20 10 27 -4 12 2 13 28 8
17 -4 37 -11 42 -17 6 -6 1 -7 -16 -3 -17 4 -30 1 -39 -10 -11 -14 -10 -19 6
-35 10 -10 29 -21 42 -25 20 -6 22 -3 22 34 0 29 4 41 14 41 11 0 16 -14 18
-47 l4 -48 8 43 c6 31 13 42 27 42 22 0 24 -11 7 -28 -17 -17 3 -35 41 -37 26
-2 30 2 36 34 4 20 11 41 17 48 7 9 -6 11 -59 7 -54 -5 -95 1 -200 25 -72 17
-144 31 -160 30 l-28 -1 28 -10z m67 -23 c0 -8 -7 -15 -15 -15 -8 0 -15 7 -15
15 0 8 7 15 15 15 8 0 15 -7 15 -15z m318 -62 c-2 -20 -9 -29 -25 -31 -27 -4
-28 1 -7 33 22 33 36 32 32 -2z m-158 -9 c0 -9 -7 -14 -17 -12 -25 5 -28 28
-4 28 12 0 21 -6 21 -16z"/>
<path d="M1080 2485 c-7 -8 -8 -15 -2 -15 5 0 15 7 22 15 7 8 8 15 2 15 -5 0
-15 -7 -22 -15z"/>
<path d="M1030 2440 c0 -5 5 -10 10 -10 6 0 10 5 10 10 0 6 -4 10 -10 10 -5 0
-10 -4 -10 -10z"/>
<path d="M952 2349 c-7 -11 -11 -23 -9 -25 7 -7 29 24 25 36 -2 6 -9 1 -16
-11z"/>
<path d="M851 2064 c0 -11 3 -14 6 -6 3 7 2 16 -1 19 -3 4 -6 -2 -5 -13z"/>
<path d="M870 1790 c0 -5 5 -10 11 -10 5 0 7 5 4 10 -3 6 -8 10 -11 10 -2 0
-4 -4 -4 -10z"/>
<path d="M1454 975 c-3 -8 -4 -20 -2 -27 3 -7 7 -1 10 15 6 29 1 36 -8 12z"/>
<path d="M1195 840 c3 -5 11 -10 16 -10 6 0 7 5 4 10 -3 6 -11 10 -16 10 -6 0
-7 -4 -4 -10z"/>
<path d="M1430 839 c0 -5 5 -7 10 -4 6 3 10 8 10 11 0 2 -4 4 -10 4 -5 0 -10
-5 -10 -11z"/>
<path d="M1753 839 c14 -8 22 -8 30 0 8 8 3 11 -18 11 -26 -1 -28 -2 -12 -11z"/>
<path d="M1540 830 c0 -5 5 -10 11 -10 5 0 7 5 4 10 -3 6 -8 10 -11 10 -2 0
-4 -4 -4 -10z"/>
<path d="M1301 825 c8 -7 78 -9 85 -2 4 4 -14 7 -41 7 -27 0 -46 -2 -44 -5z"/>
<path d="M1645 819 c-4 -5 11 -9 31 -9 42 0 42 6 1 14 -14 2 -29 0 -32 -5z"/>
<path d="M1477 805 c3 -8 9 -12 14 -9 12 7 11 11 -5 17 -10 4 -13 1 -9 -8z"/>
<path d="M73 598 c3 -10 295 -13 1417 -13 1122 0 1414 3 1418 13 3 9 -285 12
-1418 12 -1133 0 -1421 -3 -1417 -12z"/>
<path d="M1600 507 c-54 -17 -105 -76 -120 -136 -22 -94 3 -172 76 -227 34
-26 45 -29 118 -29 69 0 86 4 114 23 39 28 80 100 60 106 -7 2 -28 9 -47 15
-42 14 -41 14 -41 -3 0 -8 -10 -27 -23 -41 -25 -30 -77 -36 -117 -15 -43 23
-62 111 -39 178 23 67 110 84 159 32 26 -27 33 -30 69 -24 47 8 51 21 19 66
-41 58 -141 83 -228 55z"/>
<path d="M2030 507 c-49 -16 -107 -77 -121 -129 -14 -53 -6 -130 18 -170 10
-17 35 -44 55 -61 31 -25 48 -30 106 -35 136 -9 217 47 237 166 27 163 -126
283 -295 229z m153 -87 c34 -27 51 -81 43 -134 -14 -94 -125 -134 -190 -69
-50 49 -47 154 5 198 39 32 104 34 142 5z"/>
<path d="M260 310 l0 -200 50 0 50 0 0 63 c0 57 3 66 30 92 35 34 30 38 102
-82 l43 -72 58 -1 c31 0 57 4 57 10 0 5 -36 60 -81 122 l-81 113 82 78 83 77
-64 0 -64 0 -82 -82 -83 -83 0 83 0 82 -50 0 -50 0 0 -200z"/>
<path d="M690 309 l0 -202 143 5 c83 3 152 10 165 17 32 17 62 70 62 107 0 31
-38 84 -60 84 -7 0 0 14 14 31 29 35 33 74 10 107 -30 43 -64 52 -204 52
l-130 0 0 -201z m231 121 c23 -13 25 -55 3 -64 -9 -3 -42 -6 -75 -6 l-59 0 0
40 0 40 56 0 c30 0 64 -5 75 -10z m27 -162 c18 -18 14 -56 -7 -68 -11 -5 -49
-10 -85 -10 l-66 0 0 45 0 45 73 0 c43 0 78 -5 85 -12z"/>
<path d="M1090 475 l0 -34 63 -3 62 -3 3 -163 2 -162 50 0 50 0 0 165 0 165
60 0 60 0 0 35 0 35 -175 0 -175 0 0 -35z"/>
<path d="M2382 313 l3 -198 168 -3 167 -2 0 40 0 40 -120 0 -120 0 0 45 0 44
108 3 107 3 3 38 3 37 -111 0 -111 0 3 38 3 37 113 3 112 3 0 34 0 35 -165 0
-165 0 2 -197z"/>
<path d="M77 64 c-4 -4 -4 -11 -1 -15 3 -5 641 -9 1420 -9 1128 0 1415 3 1412
12 -4 10 -297 14 -1415 16 -775 1 -1412 -1 -1416 -4z"/>
</g>
</svg>
